<svg xmlns="http://www.w3.org/2000/svg" viewBox="0 0 122.88 90.37" xml:space="preserve">
  <path fill="#ffeaa7" d="M25.75 69.03c0 1.68-1.36 3.03-3.03 3.03-1.68 0-3.03-1.36-3.03-3.03 0-11.53 4.67-21.97 12.23-29.53s18-12.23 29.53-12.23 21.97 4.67 29.53 12.23 12.23 18 12.23 29.53c0 1.68-1.36 3.03-3.03 3.03s-3.03-1.36-3.03-3.03c0-9.86-3.99-18.78-10.45-25.24S71.32 33.34 61.46 33.34s-18.78 4-25.24 10.45a35.52 35.52 0 0 0-10.47 25.24m62.07 21.34c-.16-4.78.11-4.85-5.48-6.94-3.28-1.23-7.47-2.79-10.48-4.66-3.54 3.28-5.81 7.03-5.89 11.6zm-52.76 0c.16-4.78-.11-4.85 5.48-6.94 3.28-1.23 7.47-2.79 10.48-4.66 3.54 3.28 5.81 7.03 5.89 11.6zm19.26-16.11c.15-1.21-3.43-5.8-4.08-8.01-1.4-2.22-1.9-5.76-.37-8.11.61-.93.35-2.6.35-3.88 0-12.79 22.41-12.8 22.41 0 0 1.62-.37 2.85.51 4.12 1.47 2.13.71 5.9-.53 7.88-.79 2.31-4.54 6.69-4.28 8.01.22 6.56-14.06 6.34-14.01-.01m68.56-38.98-5.14 6.64 3.65 7.56-7.9-2.84-6.06 5.81.26-8.39-7.4-3.97 8.06-2.35 1.49-8.27 4.72 6.94zM96.78 9.17l-1.13 8.32 6.94 4.73-8.26 1.5-2.35 8.06-3.97-7.4-8.39.26 5.81-6.06-2.85-7.91 7.56 3.65zM0 35.28l8.32 1.13 4.73-6.94 1.5 8.26 8.06 2.35-7.4 3.97.26 8.39-6.07-5.81-7.91 2.84 3.65-7.56zM26.1 9.17l6.64 5.14 7.56-3.65-2.83 7.9 5.81 6.06-8.39-.26-3.97 7.4-2.35-8.06-8.27-1.49 6.94-4.73zM61.44 0l3.18 7.77 8.37.62-6.4 5.43 2 8.16-7.14-4.42-7.14 4.42 2-8.16-6.42-5.43 8.37-.62z"/>
</svg>
