<svg width="169" height="169" viewBox="0 0 169 169" fill="none" xmlns="http://www.w3.org/2000/svg">
  <path fill-rule="evenodd" clip-rule="evenodd" d="m124.876 151.413 37.461-64.886a3.37 3.37 0 0 0 0-3.364l-37.461-64.885a3.37 3.37 0 0 0-2.914-1.683H47.038a3.36 3.36 0 0 0-2.914 1.683L6.663 83.163a3.37 3.37 0 0 0 0 3.365l37.461 64.885a3.36 3.36 0 0 0 2.914 1.682h74.924a3.37 3.37 0 0 0 2.914-1.682M67.61 131.674a8.787 8.787 0 0 1-12.004 3.216 8.787 8.787 0 0 1-3.216-12.003l5.55-9.611a8.786 8.786 0 0 1 12.004-3.216 8.786 8.786 0 0 1 3.215 12.003zm34.54-1.551a8.787 8.787 0 1 0 15.22-8.786l-19.242-33.33a26.77 26.77 0 0 0-23.182-13.382H36.463a8.787 8.787 0 1 0 0 17.573l38.483.001a9.19 9.19 0 0 1 7.962 4.596z" fill="#2cfb97"/>
</svg>
