<svg xmlns="http://www.w3.org/2000/svg" width="100" height="100" viewBox="0 0 256 256" style="fill:#d9ecff">
  <path d="M25 2C12.318 2 2 12.317 2 25s10.318 23 23 23 23-10.317 23-23S37.682 2 25 2m-7 33h-4V20h4zm-2-18a2 2 0 1 1-.001-3.999A2 2 0 0 1 16 17m21 18h-4v-7.5a3.51 3.51 0 0 0-3.5-3.5 3.51 3.51 0 0 0-3.5 3.5V35h-4V20h4v1.816A6.48 6.48 0 0 1 30.5 20a6.5 6.5 0 0 1 6.5 6.5z" transform="scale(5.12)" font-family="none" font-weight="none" font-size="none" text-anchor="none" style="mix-blend-mode:normal"/>
</svg>
