<svg xmlns="http://www.w3.org/2000/svg" width="1920" height="1080" viewBox="0 0 1920 1080">
  <path d="M734.567 34.372q-43.037 92.586 16.275 116.094c59.313 23.508 200.347 32.911 259.299 83.906 58.95 50.994 238.697 11.572 269.438-75.95S1365.669-64 1073.808-64q-291.862 0-339.24 98.372z" fill="#2cfb97" fill-opacity="0.05"/>
  <path d="M734.567 34.372q-43.037 92.586 16.275 116.094c59.313 23.508 200.347 32.911 259.299 83.906 58.95 50.994 238.697 11.572 269.438-75.95S1365.669-64 1073.808-64q-291.862 0-339.24 98.372z" fill="#2cfb97" fill-opacity="0.05" transform="matrix(2.8 0 1.61658 2.8 -1800 60)" style="position:relative;z-index:0;"/>
  <path d="M734.567 34.372q-43.037 92.586 16.275 116.094c59.313 23.508 200.347 32.911 259.299 83.906 58.95 50.994 238.697 11.572 269.438-75.95S1365.669-64 1073.808-64q-291.862 0-339.24 98.372z" fill="#2cfb97" fill-opacity="0.05" transform="matrix(2.65 0 1.3795 2.65 -1650 55)" style="position:relative;z-index:1;"/>
  <path d="M734.567 34.372q-43.037 92.586 16.275 116.094c59.313 23.508 200.347 32.911 259.299 83.906 58.95 50.994 238.697 11.572 269.438-75.95S1365.669-64 1073.808-64q-291.862 0-339.24 98.372z" fill="#2cfb97" fill-opacity="0.06" transform="matrix(2.5 0 1.16577 2.5 -1500 50)" style="position:relative;z-index:2;"/>
  <path d="M734.567 34.372q-43.037 92.586 16.275 116.094c59.313 23.508 200.347 32.911 259.299 83.906 58.95 50.994 238.697 11.572 269.438-75.95S1365.669-64 1073.808-64q-291.862 0-339.24 98.372z" fill="#2cfb97" fill-opacity="0.07" transform="matrix(2.35 0 .9734 2.35 -1350 45)" style="position:relative;z-index:3;"/>
  <path d="M734.567 34.372q-43.037 92.586 16.275 116.094c59.313 23.508 200.347 32.911 259.299 83.906 58.95 50.994 238.697 11.572 269.438-75.95S1365.669-64 1073.808-64q-291.862 0-339.24 98.372z" fill="#2cfb97" fill-opacity="0.08" transform="matrix(2.2 0 .80073 2.2 -1200 40)" style="position:relative;z-index:4;"/>
  <path d="M734.567 34.372q-43.037 92.586 16.275 116.094c59.313 23.508 200.347 32.911 259.299 83.906 58.95 50.994 238.697 11.572 269.438-75.95S1365.669-64 1073.808-64q-291.862 0-339.24 98.372z" fill="#2cfb97" fill-opacity="0.09" transform="matrix(2.05 0 .64636 2.05 -1050 35)" style="position:relative;z-index:5;"/>
  <path d="M734.567 34.372q-43.037 92.586 16.275 116.094c59.313 23.508 200.347 32.911 259.299 83.906 58.95 50.994 238.697 11.572 269.438-75.95S1365.669-64 1073.808-64q-291.862 0-339.24 98.372z" fill="#2cfb97" fill-opacity="0.10" transform="matrix(1.9 0 .5091 1.9 -900 30)" style="position:relative;z-index:6;"/>
  <path d="M734.567 34.372q-43.037 92.586 16.275 116.094c59.313 23.508 200.347 32.911 259.299 83.906 58.95 50.994 238.697 11.572 269.438-75.95S1365.669-64 1073.808-64q-291.862 0-339.24 98.372z" fill="#2cfb97" fill-opacity="0.12" transform="matrix(1.75 0 .38797 1.75 -750 25)" style="position:relative;z-index:7;"/>
  <path d="M734.567 34.372q-43.037 92.586 16.275 116.094c59.313 23.508 200.347 32.911 259.299 83.906 58.95 50.994 238.697 11.572 269.438-75.95S1365.669-64 1073.808-64q-291.862 0-339.24 98.372z" fill="#2cfb97" fill-opacity="0.14" transform="matrix(1.6 0 .28212 1.6 -600 20)" style="position:relative;z-index:8;"/>
  <path d="M734.567 34.372q-43.037 92.586 16.275 116.094c59.313 23.508 200.347 32.911 259.299 83.906 58.95 50.994 238.697 11.572 269.438-75.95S1365.669-64 1073.808-64q-291.862 0-339.24 98.372z" fill="#2cfb97" fill-opacity="0.16" transform="matrix(1.45 0 .1909 1.45 -450 15)" style="position:relative;z-index:9;"/>
  <path d="M734.567 34.372q-43.037 92.586 16.275 116.094c59.313 23.508 200.347 32.911 259.299 83.906 58.95 50.994 238.697 11.572 269.438-75.95S1365.669-64 1073.808-64q-291.862 0-339.24 98.372z" fill="#2cfb97" fill-opacity="0.18" transform="matrix(1.3 0 .11374 1.3 -300 10)" style="position:relative;z-index:10;"/>
  <path d="M734.567 34.372q-43.037 92.586 16.275 116.094c59.313 23.508 200.347 32.911 259.299 83.906 58.95 50.994 238.697 11.572 269.438-75.95S1365.669-64 1073.808-64q-291.862 0-339.24 98.372z" fill="#2cfb97" fill-opacity="0.20" transform="matrix(1.15 0 .05021 1.15 -150 5)" style="position:relative;z-index:11;"/>
</svg>
