<svg xmlns="http://www.w3.org/2000/svg" fill="white" viewBox="0 0 422 422" xml:space="preserve">
  <path d="M339.07 92.5c2.35 4.32 3.68 9.25 3.68 14.5 0 16.82-13.68 30.5-30.5 30.5s-30.5-13.68-30.5-30.5c0-5.25 1.33-10.18 3.67-14.5H174.57c2.35 4.32 3.68 9.25 3.68 14.5 0 16.82-13.68 30.5-30.5 30.5s-30.5-13.68-30.5-30.5c0-5.25 1.33-10.18 3.67-14.5H38v264h384v-264zM393 312c0 4.42-3.58 8-8 8H75c-4.42 0-8-3.58-8-8V169.5c0-4.42 3.58-8 8-8h310c4.42 0 8 3.58 8 8z"/>
  <path d="M312.25 121.5c7.99 0 14.5-6.5 14.5-14.5s-6.51-14.5-14.5-14.5c-8 0-14.5 6.5-14.5 14.5s6.5 14.5 14.5 14.5m-164.5 0c7.99 0 14.5-6.5 14.5-14.5s-6.51-14.5-14.5-14.5c-8 0-14.5 6.5-14.5 14.5s6.5 14.5 14.5 14.5M22 364.5v-233H0v264h384v-23H30c-4.42 0-8-3.58-8-8m319.33-187H377V209h-35.67zm0 47.5H377v31.5h-35.67zm0 47.5H377V304h-35.67zm-51.67 0h35.67V304h-35.67zm0-47.5h35.67v31.5h-35.67zm0-47.5h35.67V209h-35.67zm-51.66 0h35.66V209H238zm0 47.5h35.66v31.5H238z"/>
  <path d="M238 272.5h35.66V304H238zm-51.67 0H222V304h-35.67zm0-47.5H222v31.5h-35.67zm0-47.5H222V209h-35.67zm-51.67 0h35.67V209h-35.67zm0 47.5h35.67v31.5h-35.67zm0 47.5h35.67V304h-35.67zm-51.66 0h35.66V304H83zm0-47.5h35.66v31.5H83zm0-47.5h35.66V209H83zm56.75-151h16v50h-16zm164.5 0h16v50h-16z"/>
</svg>
