<svg xmlns="http://www.w3.org/2000/svg" height="800" width="800" viewBox="0 0 495.168 495.168" xml:space="preserve">
  <path style="fill:#2cfb97" d="m493.146 387.188-27.011-51.299a18.7 18.7 0 0 0 1.362-6.994V96.074c0-10.388-8.443-18.826-18.825-18.826H47.056c-10.383 0-18.826 8.438-18.826 18.826v232.82c0 2.963.708 5.758 1.933 8.256L2.037 387.953c-2.365 3.964-2.63 6.91-1.004 10.219 1.022 2.059 2.791 3.695 4.98 4.607l.923.385s28.425 14.756 240.925 14.756 241.138-14.746 241.138-14.746l.951-.412c7.972-3.303 4.878-12.615 3.196-15.574M47.056 96.074h401.616l.013 232.578H47.056zM29.424 384.156l18.317-36.092h401.43l17.64 36.092z"/>
  <path style="fill:#2cfb97" d="M331.61 157.923c-2.458-4.059-5.93-7.404-10.324-9.949a9.48 9.48 0 0 0-9.364-7.942 9.5 9.5 0 0 0-6.707 2.781c-6.096-.831-12.764-.81-20.101.062a84 84 0 0 0-.828-1.813c-9.216-19.492-22.038-30.255-36.108-30.305-14.342 0-27.859 11.706-37.167 32.147-3.859-.469-7.568-.706-11.036-.706-17.155 0-29.515 5.438-35.742 15.725-7.253 11.982-4.729 28.506 7.107 46.525a100 100 0 0 0 2.836 4.074c-14.105 19.398-17.732 37.855-9.943 50.723 6.228 10.287 18.587 15.725 35.744 15.725 3.337 0 6.93-.225 10.69-.67 9.173 20.367 22.628 32.059 36.999 32.111h.003c14.34 0 27.857-11.706 37.164-32.148 3.857.469 7.566.707 11.036.707 17.154 0 29.513-5.438 35.741-15.725 7.788-12.867 4.161-31.324-9.943-50.723a100 100 0 0 0 2.837-4.074c11.836-18.019 14.36-34.543 7.106-46.525m-48.691 14.262a205 205 0 0 0-9.331-5.999 199 199 0 0 0-11.783-6.593c5.582-1.908 11.073-3.411 16.365-4.479 1.889 5.307 3.482 11.033 4.749 17.071m-34.685-50.428c9.194.033 18.505 8.415 25.644 23.041-8.396 1.849-17.121 4.646-25.957 8.328-8.708-3.627-17.302-6.398-25.568-8.244 7.304-14.924 16.466-23.122 25.881-23.125m-30.212 33.432c5.188 1.062 10.561 2.54 16.015 4.403a199 199 0 0 0-11.782 6.593 205 205 0 0 0-9.006 5.78c1.296-5.928 2.898-11.558 4.773-16.776M199.974 263.97c-12.912 0-22.263-3.701-26.331-10.421-5.047-8.339-2.209-21.417 7.773-36.009 5.413 6.145 11.687 12.139 18.669 17.837 1.375 10.142 3.54 19.652 6.439 28.294a77 77 0 0 1-6.55.299m-1.355-44.475c-3.786-3.561-7.267-7.205-10.374-10.862 3.125-3.672 6.625-7.337 10.434-10.926a205 205 0 0 0-.06 21.788m1.642-37.89c-7.092 5.756-13.449 11.809-18.919 18.012a94 94 0 0 1-.808-1.207c-9.244-14.072-11.756-26.753-6.891-34.789 4.068-6.721 13.419-10.422 26.332-10.422 2.121 0 4.417.109 6.843.326-2.923 8.581-5.128 18.019-6.557 28.08m13.804 68.11c1.747 1.974 4.294 3.223 7.108 3.223 1.15 0 2.276-.208 3.354-.619 3.16 1.856 6.35 3.619 9.513 5.255-5.563 1.902-11.038 3.402-16.315 4.468a130 130 0 0 1-3.66-12.327m33.543 45.696c-9.356-.034-18.421-8.207-25.605-23.051 8.38-1.846 17.09-4.643 25.917-8.318 8.714 3.629 17.311 6.4 25.579 8.246-7.296 14.925-16.442 23.123-25.891 23.123m30.218-33.431c-5.188-1.063-10.563-2.541-16.02-4.406a197 197 0 0 0 11.781-6.592c3.037-1.838 6.06-3.78 9.012-5.79-1.296 5.933-2.898 11.567-4.773 16.788m7.372-32.248a187 187 0 0 1-17.306 11.839 186 186 0 0 1-19.972 10.492 185 185 0 0 1-17.25-8.896c-.144-5.114-4.349-9.23-9.497-9.23a9.5 9.5 0 0 0-3.74.771 180 180 0 0 1-6.923-5.078 182 182 0 0 1-1.151-21.185c.025-7.053.456-14.104 1.28-20.967a183 183 0 0 1 17.311-11.884 186 186 0 0 1 19.971-10.493 186 186 0 0 1 19.972 10.493 182 182 0 0 1 17.483 12.021c.421 3.8.725 7.708.904 11.63a9.46 9.46 0 0 0-3.802 7.587c0 2.992 1.478 5.872 3.892 7.651a181 181 0 0 1-1.172 15.249m37.001 23.816c-4.068 6.721-13.42 10.422-26.331 10.422-2.125 0-4.422-.109-6.844-.327 2.929-8.598 5.135-18.052 6.563-28.13 7.05-5.738 13.381-11.779 18.838-17.973 9.984 14.592 12.821 27.67 7.774 36.008m-24.924-54.596q-.027-.595-.058-1.194c3.785 3.571 7.268 7.218 10.38 10.875-3.128 3.682-6.631 7.346-10.439 10.923.094-1.644.167-3.287.22-4.914 2.543-1.766 4.102-4.707 4.102-7.808a9.55 9.55 0 0 0-4.205-7.882m18.034-.543q-.397.604-.808 1.207c-5.441-6.169-11.755-12.186-18.789-17.905-1.39-10.118-3.559-19.6-6.453-28.208 5.278-.457 9.841-.396 14.127.175 1.577 3.225 4.937 5.354 8.536 5.354a9.5 9.5 0 0 0 4.473-1.12c2.504 1.559 4.455 3.477 5.806 5.709 4.863 8.034 2.352 20.715-6.892 34.788m80.908 65.794 10.622-4.288a.942.942 0 0 0 .003-1.745l-43.208-17.568a.94.94 0 0 0-1.021.206.94.94 0 0 0-.206 1.021l17.569 43.207a.94.94 0 0 0 1.744-.002l4.288-10.622 25.452 25.452a.94.94 0 0 0 1.332 0l8.876-8.876a.943.943 0 0 0 0-1.332z"/>
</svg>
